# xmcd
# 
# Track frame offsets:
#     150
#     27513
#     49830
#     67200
#     90275
#     108125
#     138705
#     161640
# 
# Disc length: 2386
# 
# Revision: 6
# Processed by: cddbd v1.5.2PL0 Copyright (c) Steve Scherf et al.
# Submitted via: fre:ac v1.0.17
# 
DISCID=6b095008
DTITLE=Marshall Tucker Band - Greatest Hits
DYEAR=1978
DGENRE=Rock
TTITLE0=Can't You See
TTITLE1=Heard It In A Love Song
TTITLE2=Searchin' For A Rainbow
TTITLE3=Ramblin'
TTITLE4=Fire On The Mountain
TTITLE5=This Ol' Cowby
TTITLE6=24 Hours At A Time
TTITLE7=Long Hard Ride
EXTD=YEAR: 1978
EXTT0=
EXTT1=
EXTT2=
EXTT3=
EXTT4=
EXTT5=
EXTT6=
EXTT7=
PLAYORDER=
